<svg width="35" height="37" viewBox="0 0 35 37" fill="none" xmlns="http://www.w3.org/2000/svg">
<path d="M34 25.5014V11.4986C33.9993 10.8847 33.8296 10.2817 33.5078 9.75024C33.186 9.21875 32.7235 8.77739 32.1667 8.47044L19.3333 1.46901C18.7759 1.16175 18.1436 1 17.5 1C16.8564 1 16.2241 1.16175 15.6667 1.46901L2.83333 8.47044C2.27648 8.77739 1.81396 9.21875 1.49218 9.75024C1.1704 10.2817 1.00066 10.8847 1 11.4986V25.5014C1.00066 26.1153 1.1704 26.7183 1.49218 27.2498C1.81396 27.7813 2.27648 28.2226 2.83333 28.5296L15.6667 35.531C16.2241 35.8382 16.8564 36 17.5 36C18.1436 36 18.7759 35.8382 19.3333 35.531L32.1667 28.5296C32.7235 28.2226 33.186 27.7813 33.5078 27.2498C33.8296 26.7183 33.9993 26.1153 34 25.5014Z" stroke="white" stroke-linecap="round" stroke-linejoin="round"/>
<path d="M2 9L17.5 19L33 9" stroke="white" stroke-linecap="round" stroke-linejoin="round"/>
<path d="M17 36V19" stroke="white" stroke-linecap="round" stroke-linejoin="round"/>
</svg>
