<svg width="550" height="161" viewBox="0 0 550 161" fill="none" xmlns="http://www.w3.org/2000/svg">
<g filter="url(#filter0_bd_28_6)">
<path d="M24 20.5H149.5H180.875H212.25C214.775 20.5 216.038 20.5 217.262 20.5972C222.8 21.0369 228.119 22.9568 232.661 26.1561C233.665 26.8635 234.637 27.67 236.579 29.2829L252.5 42.5L253.826 43.7131C253.86 43.7446 253.878 43.7603 253.892 43.7738C266.225 55.0279 285.256 54.4932 296.937 42.5643C296.951 42.5501 296.967 42.5334 297 42.5L309.409 31.357C312.617 28.4769 314.22 27.0369 315.95 25.861C319.918 23.1645 324.457 21.4255 329.211 20.781C331.284 20.5 333.439 20.5 337.75 20.5H369.125H400.5H526V82.28C526 100.227 526 109.2 522.397 116.006C519.489 121.498 514.998 125.989 509.506 128.897C502.7 132.5 493.727 132.5 475.78 132.5H74.22C56.273 132.5 47.2996 132.5 40.4942 128.897C35.0023 125.989 30.5111 121.498 27.6033 116.006C24 109.2 24 100.227 24 82.28V20.5Z" fill="url(#paint0_linear_28_6)" fill-opacity="0.25" shape-rendering="crispEdges"/>
<path d="M253.488 44.082L253.826 43.7131L253.488 44.082L253.555 44.1431L253.892 43.7738L253.555 44.1431C266.087 55.5788 285.424 55.0355 297.294 42.9142L297.346 42.8613L309.743 31.7291C312.961 28.84 314.536 27.4271 316.231 26.2746C320.135 23.6215 324.601 21.9106 329.278 21.2765C331.31 21.0011 333.426 21 337.75 21H369.125H400.5H525.5V82.28C525.5 91.262 525.5 97.9674 525.051 103.279C524.604 108.584 523.712 112.453 521.955 115.772C519.094 121.175 514.675 125.594 509.272 128.455C505.953 130.212 502.084 131.104 496.779 131.551C491.467 132 484.762 132 475.78 132H74.22C65.238 132 58.5326 132 53.221 131.551C47.9157 131.104 44.0466 130.212 40.7281 128.455C35.3248 125.594 30.9061 121.175 28.0451 115.772C26.2881 112.453 25.3963 108.584 24.9486 103.279C24.5004 97.9674 24.5 91.262 24.5 82.28V21H149.5H180.875H212.25C214.783 21 216.022 21.0004 217.223 21.0957C222.672 21.5282 227.904 23.4172 232.373 26.5648C233.357 27.2583 234.311 28.0497 236.26 29.6676L252.171 42.877L253.488 44.082Z" stroke="url(#paint1_linear_28_6)" shape-rendering="crispEdges"/>
</g>
<defs>
<filter id="filter0_bd_28_6" x="-16" y="-19.5" width="582" height="192" filterUnits="userSpaceOnUse" color-interpolation-filters="sRGB">
<feFlood flood-opacity="0" result="BackgroundImageFix"/>
<feGaussianBlur in="BackgroundImage" stdDeviation="20"/>
<feComposite in2="SourceAlpha" operator="in" result="effect1_backgroundBlur_28_6"/>
<feColorMatrix in="SourceAlpha" type="matrix" values="0 0 0 0 0 0 0 0 0 0 0 0 0 0 0 0 0 0 127 0" result="hardAlpha"/>
<feOffset dy="4"/>
<feGaussianBlur stdDeviation="12"/>
<feComposite in2="hardAlpha" operator="out"/>
<feColorMatrix type="matrix" values="0 0 0 0 0 0 0 0 0 0 0 0 0 0 0 0 0 0 0.2 0"/>
<feBlend mode="normal" in2="effect1_backgroundBlur_28_6" result="effect2_dropShadow_28_6"/>
<feBlend mode="normal" in="SourceGraphic" in2="effect2_dropShadow_28_6" result="shape"/>
</filter>
<linearGradient id="paint0_linear_28_6" x1="561.999" y1="181" x2="557.365" y2="310.763" gradientUnits="userSpaceOnUse">
<stop stop-color="white" stop-opacity="0.4"/>
<stop offset="1" stop-color="white" stop-opacity="0.1"/>
</linearGradient>
<linearGradient id="paint1_linear_28_6" x1="562.001" y1="293" x2="560.79" y2="180.528" gradientUnits="userSpaceOnUse">
<stop stop-color="#110232" stop-opacity="0.23"/>
<stop offset="0.34375" stop-color="#715C9F" stop-opacity="0.49"/>
<stop offset="0.65625" stop-color="#9988BF" stop-opacity="0.56"/>
<stop offset="1" stop-color="#554971" stop-opacity="0.74"/>
</linearGradient>
</defs>
</svg>
